# xmcd
#
# Track frame offsets:
#       150
#       15079
#       28765
#       41695
#       55871
#       70645
#       84255
#       104131
#       120126
#       135255
#       153220
#       168630
#       185096
#
# Disc length: 2745 seconds
#
# Revision: 0
# Processed by: cddbd v1.5.2PL0 Copyright (c) Steve Scherf et al.
# Submitted via: WaveLab 6.10
#
DISCID=990ab70d
DTITLE=Frank Biner - The Life and Times of Frank Biner
DYEAR=1900
DGENRE=
TTITLE0=I Gotta Run
TTITLE1=Whatever Happened To Those Days
TTITLE2=I'm A Midnight Mover
TTITLE3=Clear And Lovely Day
TTITLE4=Just As Long As We Have Each Other
TTITLE5=I Got To Be Frank
TTITLE6=Love Is Not A Toy
TTITLE7=Girl Scoutin'
TTITLE8=Turn Back The Hands Of Time
TTITLE9=Loving You
TTITLE10=You're So Wonderful, So Marvelous
TTITLE11=Superstar Lady
TTITLE12=I Believe In Love
EXTD=
EXTT0=
EXTT1=
EXTT2=
EXTT3=
EXTT4=
EXTT5=
EXTT6=
EXTT7=
EXTT8=
EXTT9=
EXTT10=
EXTT11=
EXTT12=
PLAYORDER=
